<svg id="Layer_1" data-name="Layer 1" xmlns="http://www.w3.org/2000/svg" viewBox="0 0 594.44 253.19"><defs><style>.cls-1{fill:#fefefe;}.cls-2{fill:#132a4f;}.cls-3{fill:#3270aa;}.cls-4{fill:#24395b;}.cls-5{fill:#306faa;}.cls-6{fill:#316faa;}.cls-7{fill:#3471ab;}.cls-8{fill:#3371ab;}.cls-9{fill:#3370aa;}.cls-10{fill:#3c77ae;}.cls-11{fill:#3170aa;}.cls-12{fill:#3673ac;}.cls-13{fill:#fdfdfe;}.cls-14{fill:#fafbfc;}</style></defs><title>Artboard 1</title><path class="cls-1" d="M594.34,131.09c0,39.33-.06,78.67.1,118,0,3.43-.67,4.1-4.1,4.1q-143-.18-286-.1c-.26-1.83,1.29-2.22,2.4-2.69,4.75-2,6.76-5.88,7-10.62.56-9.13.17-18.29.19-27.44,0-1.87-.42-3.33-2.89-2.78-2.1.46-3.82-.91-5.72-1.45-5.41-1.53-10,.75-12,6a22.56,22.56,0,0,0-.8,13.72c1.8,7.2,6.78,10.23,13.8,8.15,5.54-1.65,7.15-.1,5.87,5.65-1.36,6.15-6.46,9.53-12.63,8.48-1.27-.22-2.35-1.17-3.77-.91.55,1.54,3,1.78,2.52,3.88q-147,0-294,.1c-3.42,0-4.1-.67-4.1-4.1q.19-122.5,0-245C.24.67.92,0,4.34,0q293,.16,586,0c3.42,0,4.12.67,4.1,4.09-.16,33.67-.1,67.33-.1,101-3.21-.66-2.42-3.61-3-5.59-5-17.73-16.49-29.15-34.41-32.33-22.28-4-41.6,4.2-50.09,27.17-7.36,19.92-7.22,40.17,1.14,59.92,5.54,13.08,15.8,20.69,29.56,23.71,17.43,3.83,33.39,1,47.5-10.39,4.92-4,4.94-5,.21-9.11-8.4-7.36-8.38-7.31-18.27-2.24-11.69,6-23.35,6.5-34.49-1.19-7-4.82-9.23-12.37-10.25-20.33-.39-3,1.28-4.66,4.34-4.87,2.16-.14,4.33-.11,6.49-.11q26.73,0,53.46,0c2.15,0,4.34-.22,6.45.44A7.31,7.31,0,0,1,594.34,131.09Z"/><path class="cls-2" d="M593.34,131.07c-21.64.07-43.27.26-64.91.12-4.26,0-5.42.93-4.7,5.27,3,18.29,19.16,27.43,37.51,21a31.69,31.69,0,0,0,11.93-7c1.94-1.9,3.14-1.53,4.91.08,3.7,3.35,7.46,6.65,11.42,9.69,2.4,1.84,2.14,3,.14,5-16.69,16.08-36.44,19.38-57.76,12.59C512,171.43,504,155.38,501.45,136c-1.78-13.52-1.16-27,3.21-40,7.21-21.49,24.81-32.85,47.7-31.06,20.78,1.63,37.35,16.95,41.1,38,.14.78-.06,1.69.89,2.13v5c-1.12,5-.21,10.12-.53,15.17C593.69,127.2,594.31,129.2,593.34,131.07Z"/><path class="cls-3" d="M298.34,253.09c-.74-1.77-2.84-1.5-4-2.66-.95-1-3-1.42-1.48-3.41,1.18-1.54,2.23-.66,3.36.17a9.35,9.35,0,0,0,5.06,1.89c7,.46,10.27-4.09,9.68-13.56-1.4.62-2.7,1.3-4.07,1.78-7.69,2.69-14.05-1-15.62-9a30.71,30.71,0,0,1-.08-11.87c1.65-8.64,8.62-12.41,16.75-8.94,1.35.58,2.17,2,3.95-.1,1.21-1.44,3.34-.53,3.32,2.22-.08,10.3.11,20.61-.13,30.91-.17,6.87-4.78,10.4-10.73,12.56Z"/><path class="cls-4" d="M593.34,131.07c0-5.45,0-10.9,0-16.34,0-1.58-.56-3.35,1-4.64v21Z"/><path class="cls-2" d="M310.34,97.34c19.06,8,27.65,23.18,24.84,44-2.72,20.12-18,36.52-37.61,37.5-23.6,1.18-47.3.48-71,.65-2,0-2.71-.71-2.53-2.6.07-.83,0-1.66,0-2.5q0-74.73-.09-149.46c0-3.88.92-4.95,4.87-4.9,19,.22,38,.12,57,.09a64.3,64.3,0,0,1,15.35,1.7c24,5.82,37,27.78,30.7,51.61-2.61,9.82-9,16.47-17.56,21.36-1.28.73-2.61,1.38-3.91,2.09C310.34,96.92,310.36,97.18,310.34,97.34Z"/><path class="cls-2" d="M116.2,131.29c-10.16,0-20.33.27-30.47-.12-4.5-.18-4.78,1.66-4.39,5.19,1.83,16.44,16.52,26.22,33.57,22.24a34.32,34.32,0,0,0,15.79-8.09c1.86-1.72,3-1.8,4.9,0a131.52,131.52,0,0,0,11,9.37c2.64,2,2.75,3.23.34,5.59-12.24,12-27,16.79-43.77,15.17C76.14,178,61.73,162.53,58.7,133.11c-1.41-13.7-.51-27.31,4.73-40.29,8.23-20.38,27.3-31,49.42-27.6a45.69,45.69,0,0,1,38.61,40.67c.74,7.32.24,14.65.54,22,.13,3.08-1.21,3.51-3.83,3.48C137.52,131.22,126.86,131.29,116.2,131.29Z"/><path class="cls-2" d="M465.46,167.3c-11.26,12-24.12,15.88-38.87,12.36-17.13-4.08-28.64-18.51-28.93-36.76-.38-24.49-.08-49-.18-73.48,0-2.55.61-3.55,3.32-3.45,5.33.19,10.68.28,16,0,3.36-.2,3.71,1.2,3.7,4-.1,21.33-.17,42.66,0,64,.13,17.24,13.41,27.59,29.32,23.16,9.64-2.69,15.57-11.17,15.63-22.94.11-20.66.19-41.33-.08-62-.06-4.84.82-6.9,6.11-6.27a88.07,88.07,0,0,0,13.48.06c2.44-.09,3.49.41,3.49,3.22q-.14,53.49,0,107c0,2.65-.8,3.43-3.4,3.34-5.16-.19-10.34-.3-15.49,0-3.45.22-4.42-1-4.11-4.21C465.64,173.06,465.46,170.74,465.46,167.3Z"/><path class="cls-2" d="M170.08,120.9c0-11-.18-22,.1-33,.1-3.84-1.06-4.79-4.76-4.63-6.91.29-6.92.06-6.92-6.66q0-.75,0-1.5c0-8.65,0-8.83,8.53-9,3-.07,3.09-1.47,3.08-3.69-.06-8.66.22-17.33-.13-26-.17-4.28,1.23-5.4,5.31-5.07a105.29,105.29,0,0,0,14,0c2.89-.15,3.73.81,3.69,3.63-.14,9.16.06,18.32-.12,27.48-.06,2.89.84,4,3.65,3.52a2,2,0,0,1,.5,0c4.07.39,10.2-1.89,11.76.94,2,3.72.57,9.36.7,14.18,0,1.75-.69,2.33-2.37,2.27-2.5-.09-5,0-7.49,0-6.68,0-6.68,0-6.68,6.91q0,28.48,0,57c0,9.3,1.49,11,10.66,10.65,4.71-.2,6.56.86,6,5.85a61.83,61.83,0,0,0,0,12c.24,3.23-1,4-4,3.78-5.3-.32-10.67.39-15.91-.94-11.6-2.94-19-11.81-19.36-24.2-.36-11.15-.08-22.31-.08-33.47Z"/><path class="cls-2" d="M348.68,88.44c0-21.32.08-42.64-.08-64,0-3.45.81-4.68,4.39-4.44a97.91,97.91,0,0,0,14,0c3.71-.28,4.7.78,4.67,4.58-.18,29.64-.1,59.29-.1,88.94,0,11.49,0,23,0,34.48,0,7.61,2.29,9.92,9.71,10,6.78.08,6.78.08,6.78,6.89q0,1.75,0,3.5c0,11.32,0,11.32-11.18,11-19.28-.53-28.1-9.57-28.16-29C348.63,129.74,348.68,109.09,348.68,88.44Z"/><path class="cls-2" d="M43.43,130.6q0,28.24,0,56.47c0,20.18-12.9,32.94-33.19,33-8.86,0-8.86,0-8.86-8.72,0-.33,0-.67,0-1,0-3.5-1.11-7.61.35-10.33,1.7-3.18,6.31-.86,9.6-1.62,6-1.39,9.08-4.63,9.16-11.21.14-11.49.05-23,.05-34.48,0-27.15.14-54.31-.13-81.46,0-4.64,1.36-5.65,5.57-5.31a89.67,89.67,0,0,0,13.48,0c3.42-.24,4.06,1.06,4,4.19C43.37,90.29,43.43,110.45,43.43,130.6Z"/><path class="cls-5" d="M63.41,31.2c-.31,10.63-4.34,18.68-12.25,24.69-1.2.91-2.61,3.11-4.38.35-1.29-2-1.94-3.31.6-5.25C55.51,44.81,59,36.49,56.5,26.39,54,16,47.08,9.83,36.61,7.76A24.6,24.6,0,0,0,10.12,21.23a23.92,23.92,0,0,0,6.07,29c1.17,1,3.46,1.43,3.09,3.46a6.11,6.11,0,0,1-2.33,3.69c-1.16.76-2.35-.71-3.38-1.45C1.19,47-2.21,29.63,5.75,16.18a31.16,31.16,0,0,1,39.69-12C57,9.68,62.89,19.08,63.41,31.2Z"/><path class="cls-6" d="M51.13,32a18.67,18.67,0,0,1-6.53,13.53c-1,.85-2.16,2.78-3.62.77-1-1.42-3.1-3-.53-5a10.7,10.7,0,0,0,4.23-8.14,12.22,12.22,0,0,0-8.43-12.69A12.54,12.54,0,0,0,21.86,25.7a11.17,11.17,0,0,0,1.77,14.55c2.77,2.48,2.05,4.35.14,6.08-2.31,2.09-3.51-.76-4.69-1.94a17.58,17.58,0,0,1-2.61-22,18.67,18.67,0,0,1,21.17-8.25C45.35,16.3,51.26,24.11,51.13,32Z"/><path class="cls-7" d="M146.94,208.74a59.31,59.31,0,0,1,6-2.14c7.57-1.81,13.92,2.77,14.23,10.44.24,6,.06,12,0,18,0,1.31.19,2.78-1.8,2.9-2.47.16-2-1.66-2-3.06,0-5.32.09-10.64-.06-16-.16-6-2.71-8.8-7.76-8.92-5.55-.13-8.25,2.45-8.5,8.64-.22,5.31,0,10.64-.11,16,0,1.4.39,3.28-1.93,3.3-2.47,0-1.78-2-1.79-3.28q-.08-19.45,0-38.91c0-1.3-.73-3.31,1.73-3.34s2,1.84,2,3.25C147,199.88,146.94,204.18,146.94,208.74Z"/><path class="cls-3" d="M551.37,223.26a56.63,56.63,0,0,1-6.48,0c-3.72-.43-4.28,1.34-3.52,4.41,1.59,6.41,8.72,9,14.79,5.26,1.55-1,3.06-2.79,4.47-.38,1.3,2.22-1.27,2.72-2.45,3.46-9,5.65-19.4.75-21-9.68a25.78,25.78,0,0,1,.55-10.87c1.87-6.83,7.88-10.36,14.57-8.79,6.15,1.45,10.54,8.15,9.66,14.45-.25,1.76-1.05,2.22-2.6,2.19C556.7,223.23,554,223.25,551.37,223.26Z"/><path class="cls-3" d="M92.22,238.1c-7,0-11.66-3.93-12.9-10.74a28.32,28.32,0,0,1,.12-10.9c1.48-7.14,7.48-11.3,14.28-10,6.44,1.24,11,7.87,10.25,14.51-.25,2.14-1.39,2.3-3,2.29-4.66,0-9.33.23-14-.08-4.15-.27-4.41,1.72-3.52,4.82,1.74,6.07,8.78,8.48,14.62,4.92,1.5-.91,3.08-3,4.47-.5s-1.42,2.81-2.71,3.72C97.58,237.74,94.92,238.07,92.22,238.1Z"/><path class="cls-3" d="M407.76,223.26h-5.48c-5.11,0-5.75,1-3.79,5.81,2.16,5.3,9,7.17,14.34,3.82,1.53-1,3.11-2.84,4.43-.41s-1.45,2.93-2.77,3.7c-8.77,5.09-18.54.65-20.57-9.27a22.75,22.75,0,0,1,.91-12.74c2.38-6.35,8.38-9.25,14.9-7.34,5.83,1.71,9.89,8.58,8.81,14.52-.35,1.91-1.45,1.91-2.8,1.91Z"/><path class="cls-8" d="M258.34,222.1c0-11.63,7-18.1,16.5-15.25,6,1.8,8.85,6.49,9.08,14.92.22,8.18-2.59,13.42-8.31,15.46C265.77,240.76,258.3,234.21,258.34,222.1Z"/><path class="cls-3" d="M235.34,222.24c.07,3.85-.06,7.7-2.53,10.92-3.26,4.24-7.71,5.69-12.82,4.62a11.29,11.29,0,0,1-9.39-9.73,41.52,41.52,0,0,1-.31-8.93c.38-7.89,5.19-12.84,12.29-12.88,7.36,0,12.28,5,12.76,13C235.39,220.25,235.34,221.25,235.34,222.24Z"/><path class="cls-3" d="M333.91,231.47c2.32-6.78,4.59-13.47,6.89-20.14a17.24,17.24,0,0,1,1.56-3.65c.75-1.18,2.15-.87,3.19-.54s.54,1.35.27,2.08c-4.72,12.78-9.4,25.57-14.22,38.31-1.25,3.3-4.4,3.74-7.43,4a1.47,1.47,0,0,1-1.77-1.33,1.75,1.75,0,0,1,1.34-2.18c6-2.34,8.63-8.14,6.5-14.06-2.82-7.82-5.78-15.58-8.49-23.43-.33-1-2.44-2.74.27-3.54,2-.58,2.94.53,3.57,2.43,2.12,6.47,4.43,12.88,6.63,19.33C332.55,229.73,332.61,230.77,333.91,231.47Z"/><path class="cls-3" d="M427.34,222.15c0-4.16,0-8.33,0-12.49,0-1.77.84-3.66,2.32-2.53,2.86,2.2,4.88.2,7.23-.42,7.66-2,14.36,2.68,14.59,10.49.18,5.82.07,11.66,0,17.49,0,1.39.45,3.23-2,3.2s-2-1.77-2-3.22c0-5.5.06-11,0-16.49s-2.56-8.17-7.74-8.23-8.1,2.58-8.31,7.86c-.23,5.65,0,11.32-.08,17,0,1.44.33,3.18-2.07,3.11s-1.89-1.87-1.91-3.26C427.31,230.48,427.34,226.31,427.34,222.15Z"/><path class="cls-3" d="M177.34,222.13c0-4.16.1-8.33,0-12.49-.08-2.3,1.65-3.7,2.8-2.48,2.24,2.37,3.64.51,5.34-.09,8.61-3,15.9,2,16.05,11.15.09,5.49,0,11,0,16.49,0,1.39.44,3.23-2,3.18s-2-1.79-2-3.24c0-5.5.07-11,0-16.49s-2.65-8.18-7.77-8.22-8.17,2.78-8.31,8.38c-.13,5.33,0,10.66-.06,16,0,1.48.72,3.68-2.07,3.57s-1.83-2.31-1.87-3.75C177.27,230.13,177.34,226.13,177.34,222.13Z"/><path class="cls-8" d="M579.85,238.1c-3.71-.14-7.27-.82-10.38-3-1-.74-1.82-1.55-.8-2.85a1.81,1.81,0,0,1,2.95-.33c3.88,3.05,8.34,3,12.87,2.12,2.78-.54,4.56-2.45,4.49-5.23s-2.09-4.35-4.94-4.65-5.65-.5-8.41-1.07c-3.56-.74-6-2.78-6.29-6.72s1.1-6.89,4.68-8.58c5.2-2.46,10.38-1.74,15.42.56.79.36,2.18.79,1.54,2.07s-1.62,2.21-3.23,1.25a14.23,14.23,0,0,0-9.19-1.58c-2.93.33-5.08,1.7-5.25,5-.18,3.45,2.08,4.62,5,5,2.47.34,5,.58,7.44.87,3.9.46,6.58,2.28,7.08,6.44.51,4.32-1.22,7.48-5.16,9.31A16.79,16.79,0,0,1,579.85,238.1Z"/><path class="cls-8" d="M505.35,222.48c0,4.16,0,8.31,0,12.47,0,1.7-.89,3.8-2.26,2.46-2.66-2.6-4.46-.52-6.6.13-8,2.42-15-2.51-15.15-10.74-.08-5.48-.06-11,0-16.45,0-1.28-.8-3.27,1.69-3.34,2.74-.08,2.09,2,2.11,3.55.06,5-.06,10,0,15,.13,6.29,2.71,9,8.15,9s7.94-2.89,8.09-9.14c.12-5,0-10,.06-15,0-1.37-.56-3.23,1.78-3.38,2.91-.18,2,2.09,2,3.51C505.42,214.5,505.35,218.49,505.35,222.48Z"/><path class="cls-7" d="M111.18,223.29c0-10.2,3.75-15.55,11.2-16.86a12,12,0,0,1,8.69,1.37c1.5.95,4.45,1.81,3.31,4.1-1.49,3-3.27.27-4.77-.69a9.07,9.07,0,0,0-8.17-.82c-3.94,1.42-6,4.6-6.23,8.82-.31,5.2-.79,10.64,4.47,13.86,3.68,2.25,7.62,2.2,11.07-.86,1.14-1,2.18-1.65,3.31-.15s-.25,2.48-1.19,3.25c-3.82,3.13-8.16,3.43-12.71,2-5.19-1.62-7.69-5.55-8.74-10.57A18.53,18.53,0,0,1,111.18,223.29Z"/><path class="cls-9" d="M377.75,231.87c2.65-7.64,5.18-14.68,7.51-21.79.72-2.2,1.76-4,4.1-2.93s.11,3-.33,4.22c-2.71,7.86-5.69,15.62-8.57,23.42-.58,1.56-.89,3.26-3.19,3.14-2.09-.11-2.18-1.87-2.66-3.15-3-7.94-5.92-15.89-8.71-23.9-.39-1.13-2.24-2.82-.17-3.74,2.42-1.08,3.4.71,4.11,2.89,2.11,6.48,4.4,12.9,6.64,19.34A26.17,26.17,0,0,0,377.75,231.87Z"/><path class="cls-10" d="M515.71,221.93q0-6,0-12c0-1.55.4-3.89,2.12-2.85,3.27,2,5.64-.07,8.38-.68a11,11,0,0,1,7.71,1.23c1,.5,2.33,1.15,1.45,2.61-.65,1.08-1.29,2-3.15,1.26-8.31-3.15-12.14-.4-12.23,8.54-.05,4.83,0,9.65,0,14.48,0,1.43.31,3.25-1.94,3.36-2.61.13-2.29-1.88-2.3-3.49C515.68,230.25,515.71,226.09,515.71,221.93Z"/><path class="cls-11" d="M62.34,221.38q0-3,0-6c0-.67-.27-1.51,0-2,2.89-4.32-7.6-3.58-3.15-5.85s2.43-4.94,3.06-7.46c.34-1.38-.27-3.11,2.16-3s1.84,1.89,1.87,3.24c.09,3.49-1.05,7.81,5.11,6.66a1.38,1.38,0,0,1,1.67,1.39A1.43,1.43,0,0,1,71.23,210c-5.27-1.09-5,2.26-4.92,5.78.13,4.32.08,8.65,0,13,0,3,.7,5.33,4.26,5.44,1.46,0,2.76.23,2.54,2.14s-1.85,1.57-3.09,1.53c-4.51-.15-7.27-2.9-7.67-7.55,0-.33,0-.66,0-1Q62.34,225.37,62.34,221.38Z"/><path class="cls-7" d="M462.49,221.25c0-2.32-.72-5,.14-6.91,2.13-4.77-6-4.32-3.85-6.32s4.36-3.16,3.73-6.53a15.1,15.1,0,0,1,0-2c-.08-1.63.57-2.46,2.31-2.41s1.66,1.27,1.69,2.43a22.8,22.8,0,0,1,0,3.48c-.38,3,.76,4.3,3.87,4,1.15-.12,3-.56,2.91,1.58s-1.86,1.64-3,1.5c-3.2-.39-4,1-3.82,4,.22,5,.07,10,.06,14.94,0,3,.93,5.29,4.46,5.25,1.64,0,2.58.52,2.32,2.29s-1.57,1.41-2.7,1.42c-4.58.06-7.65-2.77-8-7.72-.23-3,0-6,0-9Z"/><path class="cls-12" d="M244.17,212.86c0-5.81,0-11.62,0-17.44,0-1.41-.38-3.21,2-3.13s2,1.8,2,3.24c0,11,.06,21.92,0,32.88,0,3.33.32,6.1,4.67,5.85,1.49-.08,2.15.81,2,2.19-.21,1.58-1.5,1.47-2.68,1.5-4.72.11-7.75-2.66-7.9-7.66-.17-5.81,0-11.62,0-17.43Z"/><path class="cls-3" d="M26.22,31.91c.24-3.72,2.18-5.83,5.86-6.11a5.82,5.82,0,0,1,6.42,5.95,6,6,0,0,1-6.28,6.17C28.66,37.61,26.54,35.58,26.22,31.91Z"/><path class="cls-1" d="M547.27,112.55c-6.83,0-13.65-.05-20.48,0-2.1,0-3.39,0-3.24-2.85.84-16.36,14.77-26.81,30.51-22.73,9.83,2.55,17.43,12.89,17.33,23.13,0,2.68-1.41,2.44-3.14,2.44C561.25,112.54,554.26,112.56,547.27,112.55Z"/><path class="cls-13" d="M311.19,220.9c0,9.11-2.22,12.88-7,13.5-6,.78-9-2.47-9.65-10.4-.73-8.48,2.07-13.67,7.55-14.05,4.47-.31,7.4,1.54,8.37,6C310.9,218.06,311.09,220.21,311.19,220.9Z"/><path class="cls-1" d="M248.24,132.48c0-6.66.11-13.32-.05-20-.06-2.66.5-3.77,3.49-3.73,11.82.18,23.64-.1,35.46.15,14.33.31,23.74,9.26,24.23,22.57.52,14.18-7.93,23.94-22.8,24.86-12.44.77-25,.23-37.44.42-2.66,0-2.95-1.2-2.92-3.33C248.29,146.46,248.24,139.47,248.24,132.48Z"/><path class="cls-1" d="M248.24,64.34c0-6.48,0-13,0-19.45,0-2.08.15-3.42,2.86-3.37,12.3.24,24.64-.24,36.89.57,14.47,1,22.87,12.43,20.56,26.67-1.69,10.41-9.65,17.69-21.22,18.2-12.12.54-24.27.16-36.41.31-2.35,0-2.71-1-2.68-3C248.29,77.64,248.24,71,248.24,64.34Z"/><path class="cls-1" d="M104.8,112.55c-6.82,0-13.65-.09-20.47,0-2.28,0-3.18-.37-3.11-3,.32-13.42,10.62-23.58,24.09-23.49,12.6.09,22.12,8.31,23.63,24.05.27,2.85-1.53,2.35-3.16,2.35Z"/><path class="cls-14" d="M549.42,219.94a21.46,21.46,0,0,1-3.48,0c-1.66-.28-4.12,1.15-4.8-1.17-.53-1.82.37-3.89,1.61-5.56a8.49,8.49,0,0,1,11.53-1.83c2.43,1.81,4.08,4.5,3.31,7.28s-3.74.88-5.7,1.28A12.6,12.6,0,0,1,549.42,219.94Z"/><path class="cls-14" d="M91.44,219.94a21.51,21.51,0,0,1-3.49,0c-1.66-.28-4.14,1.16-4.81-1.17-.53-1.82.38-3.91,1.63-5.57a8.51,8.51,0,0,1,11.58-1.76c2.44,1.84,4,4.59,3.29,7.33-.7,2.53-3.74.79-5.71,1.19A12.9,12.9,0,0,1,91.44,219.94Z"/><path class="cls-14" d="M405.81,219.94a19.69,19.69,0,0,1-3,0c-1.7-.26-4.13,1.05-5-.94s.43-4.21,1.7-6c2.09-2.9,5.13-3.51,8.44-2.92s5.16,2.83,6.1,5.89c.76,2.46.55,4.29-2.82,4C409.48,219.81,407.64,219.94,405.81,219.94Z"/><path class="cls-1" d="M262.35,222.08c0-8.45,2.91-12.33,9.06-12.12,5.94.2,8.44,4,8.34,12.84q-.13,11.6-8.54,11.68C265.19,234.54,262.34,230.54,262.35,222.08Z"/><path class="cls-1" d="M231.59,223.12a34.62,34.62,0,0,1-.8,5.31c-1.24,4.23-4.29,6.24-8.64,6s-7.08-2.88-7.7-7.13a44,44,0,0,1-.15-9c.32-5.16,3.4-8.22,8.08-8.38,4.87-.17,8,2.49,8.86,7.6C231.5,219.18,231.45,220.87,231.59,223.12Z"/></svg>